<?xml version="1.0" standalone="no"?>
<!DOCTYPE svg PUBLIC "-//W3C//DTD SVG 20010904//EN"
 "http://www.w3.org/TR/2001/REC-SVG-20010904/DTD/svg10.dtd">
<svg version="1.0" xmlns="http://www.w3.org/2000/svg"
 width="1738.000000pt" height="651.000000pt" viewBox="0 0 1738.000000 651.000000"
 preserveAspectRatio="xMidYMid meet">

<g transform="translate(0.000000,651.000000) scale(0.100000,-0.100000)"
fill="#000000" stroke="none">
<path d="M33 5123 c-8 -6 187 -209 622 -643 l635 -635 0 -1351 0 -1352 403
173 c221 94 647 277 946 405 l543 233 377 -377 376 -376 640 0 640 0 -568 568
c-312 312 -567 570 -567 573 0 3 37 29 83 57 351 216 592 558 679 965 29 138
31 418 5 552 -126 627 -601 1086 -1232 1190 -76 13 -357 16 -1830 21 -957 3
-1745 1 -1752 -3z m3312 -928 c263 -67 444 -295 445 -560 0 -150 -57 -282
-170 -395 -55 -56 -95 -85 -150 -112 -131 -63 -112 -69 -272 89 -77 76 -329
330 -560 566 l-420 427 534 0 c444 0 544 -3 593 -15z m-1076 -1329 c178 -178
184 -185 160 -195 -254 -109 -349 -148 -353 -143 -9 8 -7 522 2 522 4 0 90
-83 191 -184z"/>
<path d="M9745 3907 c-68 -23 -101 -44 -147 -96 -131 -146 -79 -373 104 -457
53 -24 76 -28 148 -29 108 0 173 22 239 81 68 62 94 120 95 214 1 125 -57 215
-173 268 -67 31 -201 40 -266 19z"/>
<path d="M15618 3849 c-156 -24 -286 -156 -307 -312 -36 -274 221 -485 483
-397 86 28 173 106 212 188 35 73 44 184 21 263 -51 173 -229 285 -409 258z
m194 -116 c200 -113 190 -403 -17 -503 -174 -84 -385 36 -402 228 -6 69 7 122
46 184 77 122 245 163 373 91z"/>
<path d="M15540 3495 l0 -205 45 0 44 0 3 73 c3 66 5 72 25 75 19 3 28 -8 60
-72 l37 -76 54 0 53 0 -43 81 c-38 70 -41 82 -28 92 56 43 68 134 24 186 -32
39 -77 51 -186 51 l-88 0 0 -205z m198 113 c7 -7 12 -24 12 -39 0 -36 -33 -59
-82 -59 l-38 0 0 55 0 55 48 0 c26 0 53 -5 60 -12z"/>
<path d="M14630 2723 c0 -660 4 -1145 10 -1184 35 -240 147 -390 332 -445 86
-25 295 -26 388 -1 36 10 69 22 73 26 5 5 -6 101 -24 215 l-33 206 -56 0 c-44
0 -61 5 -74 19 -46 50 -45 34 -46 1189 l0 1092 -285 0 -285 0 0 -1117z"/>
<path d="M6185 3074 c-168 -38 -325 -124 -446 -244 -120 -120 -208 -277 -257
-458 -24 -89 -26 -113 -26 -297 0 -186 2 -207 27 -300 73 -273 238 -481 472
-596 152 -75 266 -101 450 -103 167 -1 256 14 405 66 124 44 290 130 290 151
0 9 -168 318 -180 330 -4 5 -35 -5 -68 -22 -34 -17 -96 -43 -139 -58 -68 -23
-94 -27 -208 -27 -152 -1 -226 19 -317 84 -82 58 -137 141 -171 257 l-16 53
577 2 576 3 9 45 c16 81 12 347 -6 441 -70 355 -254 573 -557 659 -102 29
-315 36 -415 14z m299 -438 c119 -36 180 -128 200 -298 l6 -48 -346 0 -347 0
6 33 c9 58 46 141 85 192 38 50 120 108 177 124 47 14 167 12 219 -3z"/>
<path d="M13205 3079 c-164 -25 -328 -80 -500 -167 -155 -78 -148 -60 -78
-188 33 -60 79 -144 102 -186 l42 -77 107 54 c156 78 248 107 363 113 165 8
254 -29 304 -128 26 -52 44 -140 29 -140 -5 0 -56 -7 -114 -15 -498 -70 -792
-211 -904 -433 -29 -56 -56 -182 -56 -256 1 -407 352 -667 755 -561 84 22 207
85 289 148 38 28 75 56 82 62 19 14 22 7 42 -91 l18 -89 237 -3 237 -2 0 567
c0 605 -6 726 -44 877 -67 262 -239 440 -486 501 -77 20 -337 28 -425 14z
m373 -1241 l-3 -172 -60 -48 c-99 -80 -134 -93 -251 -93 -92 0 -104 2 -141 27
-52 34 -78 95 -71 168 13 129 147 219 402 270 50 10 99 19 109 19 16 1 17 -12
15 -171z"/>
<path d="M7340 3033 c0 -3 144 -434 320 -956 176 -522 320 -951 320 -953 0 -2
149 -3 332 -2 l332 3 312 955 312 955 -271 3 c-148 1 -272 0 -274 -2 -8 -8
-243 -866 -322 -1174 -42 -167 -81 -303 -85 -303 -5 0 -44 139 -87 308 -43
169 -132 502 -197 738 l-119 430 -287 3 c-157 1 -286 -1 -286 -5z"/>
<path d="M9570 2080 l0 -960 285 0 285 0 0 960 0 960 -285 0 -285 0 0 -960z"/>
<path d="M10440 3033 c0 -3 144 -434 320 -956 176 -522 320 -951 320 -953 0
-2 149 -3 332 -2 l332 3 312 955 312 955 -271 3 c-148 1 -272 0 -274 -2 -8 -8
-243 -866 -322 -1174 -42 -167 -81 -303 -85 -303 -5 0 -44 139 -87 308 -43
169 -132 502 -197 738 l-119 430 -287 3 c-157 1 -286 -1 -286 -5z"/>
</g>
</svg>
